<?xml version="1.0" encoding="UTF-8"?>
<svg width="17px" height="16px" viewBox="0 0 17 16" version="1.1" xmlns="http://www.w3.org/2000/svg" xmlns:xlink="http://www.w3.org/1999/xlink">
    <!-- Generator: Sketch 46.1 (44463) - http://www.bohemiancoding.com/sketch -->
    <title>checkmark</title>
    <desc>Created with Sketch.</desc>
    <defs></defs>
    <g id="Page-1" stroke="none" stroke-width="1" fill="none" fill-rule="evenodd">
        <g id="Desktop-HD-2" transform="translate(-366.000000, -736.000000)" fill="#6D71EF">
            <g id="Group-4-Copy" transform="translate(350.000000, 716.000000)">
                <g id="checkmark" transform="translate(16.000000, 20.000000)">
                    <path d="M8.66666667,16 C5.53657826,16.0050359 2.69106796,14.1841315 1.38431236,11.3398621 C0.0775567636,8.49559267 0.549620575,5.15048025 2.5924387,2.7789042 C4.63525683,0.407328161 7.87354214,-0.555028101 10.88,0.316 L10.16,1.508 C7.39747308,0.87306052 4.53550987,2.05440655 3.02517902,4.45307364 C1.51484816,6.85174074 1.68643691,9.94317554 3.45294655,12.159963 C5.2194562,14.3767505 8.19457697,15.2341118 10.8698672,14.2973486 C13.5451575,13.3605855 15.3355704,10.8345543 15.3333333,8 C15.3333967,7.23766872 15.2002847,6.48118664 14.94,5.76466667 L15.7866667,4.35933333 C17.057136,6.83854868 16.945447,9.80033229 15.4918688,12.1768237 C14.0382907,14.5533151 11.4524516,16.0017878 8.66666667,16 L8.66666667,16 Z M9.28,10.246 C9.24979265,10.3350384 9.19962518,10.4159905 9.13333333,10.4826667 C9.00755523,10.6096568 8.83118418,10.6731014 8.65333333,10.6553333 C8.36774669,10.675264 8.10687081,10.4934834 8.02666667,10.2186667 L5.48,7.67333333 C5.26934335,7.43592715 5.28002077,7.07552858 5.50436273,6.85100997 C5.7287047,6.62649136 6.08909475,6.61553027 6.32666667,6.826 L8.49333333,8.99333333 L13.42,1.67733333 C13.5062532,1.51951269 13.6526136,1.40323717 13.8258507,1.35490651 C13.9990879,1.30657585 14.1845035,1.33029068 14.34,1.42066667 C14.6617888,1.61921549 14.7679986,2.03726901 14.58,2.36533333 L9.28,10.246 Z"></path>
                </g>
            </g>
        </g>
    </g>
</svg>