<?xml version="1.0" encoding="UTF-8"?>
<svg width="16px" height="16px" viewBox="0 0 16 16" version="1.1" xmlns="http://www.w3.org/2000/svg" xmlns:xlink="http://www.w3.org/1999/xlink">
    <!-- Generator: Sketch 47 (45396) - http://www.bohemiancoding.com/sketch -->
    <title>Group 2</title>
    <desc>Created with Sketch.</desc>
    <defs></defs>
    <g id="Page-1" stroke="none" stroke-width="1" fill="none" fill-rule="evenodd">
        <g id="Desktop-HD-3" transform="translate(-449.000000, -931.000000)">
            <g id="Group-2" transform="translate(450.000000, 932.000000)">
                <path d="M4.22795522,2.71050543e-20 L9.99092293,2.71050543e-20 L12,1.19288395e-14 L12,2.39808173e-14 C13.1045695,2.96642458e-14 14,0.8954305 14,2 L14,4.4641173 L14,12 L14,12 C14,13.1045695 13.1045695,14 12,14 L2,14 L2,14 C0.8954305,14 1.3527075e-16,13.1045695 0,12 L0,8.01420322 L0,6.51024769 L0,4.4641173" id="Tag-Copy-19" stroke="#6D71EF" transform="translate(7.000000, 7.000000) scale(-1, 1) translate(-7.000000, -7.000000) "></path>
                <path d="M6.95120767,9.91561703 C6.92100032,10.0046554 6.87083285,10.0856075 6.804541,10.1522837 C6.6787629,10.2792739 6.50239185,10.3427184 6.324541,10.3249504 C6.03895436,10.344881 5.77807848,10.1631005 5.69787434,9.8882837 L3.15120767,7.34295037 C2.94055101,7.10554418 2.95122844,6.74514561 3.1755704,6.520627 C3.39991236,6.29610839 3.76030242,6.2851473 3.99787434,6.49561703 L6.164541,8.66295037 L11.0912077,1.34695037 C11.1774609,1.18912972 11.3238212,1.0728542 11.4970584,1.02452354 C11.6702956,0.976192879 11.8557112,0.999907708 12.0112077,1.0902837 C12.3329965,1.28883252 12.4392063,1.70688605 12.2512077,2.03495037 L6.95120767,9.91561703 Z" id="checkmark-path" fill="#6D71EF"></path>
            </g>
        </g>
    </g>
</svg>